<svg width="21" height="21" viewBox="0 0 21 21" fill="none" xmlns="http://www.w3.org/2000/svg">
<path d="M17.6435 16.3334H4.31016V3.00008C4.31016 2.77907 4.22236 2.56711 4.06608 2.41083C3.9098 2.25455 3.69784 2.16675 3.47683 2.16675C3.25581 2.16675 3.04385 2.25455 2.88757 2.41083C2.73129 2.56711 2.64349 2.77907 2.64349 3.00008V17.1667C2.64349 17.3878 2.73129 17.5997 2.88757 17.756C3.04385 17.9123 3.25581 18.0001 3.47683 18.0001H17.6435C17.8645 18.0001 18.0765 17.9123 18.2328 17.756C18.389 17.5997 18.4768 17.3878 18.4768 17.1667C18.4768 16.9457 18.389 16.7338 18.2328 16.5775C18.0765 16.4212 17.8645 16.3334 17.6435 16.3334Z" fill="white"/>
<path d="M5.97687 9.66658V13.8332C5.97687 14.0543 6.06467 14.2662 6.22095 14.4225C6.37723 14.5788 6.58919 14.6666 6.8102 14.6666C7.03121 14.6666 7.24318 14.5788 7.39946 14.4225C7.55574 14.2662 7.64353 14.0543 7.64353 13.8332V9.66658C7.64353 9.44557 7.55574 9.23361 7.39946 9.07733C7.24318 8.92105 7.03121 8.83325 6.8102 8.83325C6.58919 8.83325 6.37723 8.92105 6.22095 9.07733C6.06467 9.23361 5.97687 9.44557 5.97687 9.66658Z" fill="white"/>
<path d="M9.31012 5.50008V13.8334C9.31012 14.0544 9.39792 14.2664 9.5542 14.4227C9.71048 14.579 9.92244 14.6667 10.1435 14.6667C10.3645 14.6667 10.5764 14.579 10.7327 14.4227C10.889 14.2664 10.9768 14.0544 10.9768 13.8334V5.50008C10.9768 5.27907 10.889 5.06711 10.7327 4.91083C10.5764 4.75455 10.3645 4.66675 10.1435 4.66675C9.92244 4.66675 9.71048 4.75455 9.5542 4.91083C9.39792 5.06711 9.31012 5.27907 9.31012 5.50008Z" fill="white"/>
<path d="M12.6435 7.16658V13.8332C12.6435 14.0543 12.7313 14.2662 12.8876 14.4225C13.0439 14.5788 13.2558 14.6666 13.4768 14.6666C13.6978 14.6666 13.9098 14.5788 14.0661 14.4225C14.2224 14.2662 14.3102 14.0543 14.3102 13.8332V7.16658C14.3102 6.94557 14.2224 6.73361 14.0661 6.57733C13.9098 6.42105 13.6978 6.33325 13.4768 6.33325C13.2558 6.33325 13.0439 6.42105 12.8876 6.57733C12.7313 6.73361 12.6435 6.94557 12.6435 7.16658Z" fill="white"/>
<path d="M15.9769 3.00008V13.8334C15.9769 14.0544 16.0647 14.2664 16.2209 14.4227C16.3772 14.5789 16.5892 14.6667 16.8102 14.6667C17.0312 14.6667 17.2432 14.5789 17.3995 14.4227C17.5557 14.2664 17.6435 14.0544 17.6435 13.8334V3.00008C17.6435 2.77907 17.5557 2.56711 17.3995 2.41083C17.2432 2.25455 17.0312 2.16675 16.8102 2.16675C16.5892 2.16675 16.3772 2.25455 16.2209 2.41083C16.0647 2.56711 15.9769 2.77907 15.9769 3.00008V3.00008Z" fill="white"/>
</svg>
