<svg width="21" height="21" viewBox="0 0 21 21" fill="none" xmlns="http://www.w3.org/2000/svg">
<path d="M10.1435 10.4998C10.6038 10.4998 10.9768 10.1267 10.9768 9.66646C10.9768 9.20623 10.6038 8.83313 10.1435 8.83313C9.68328 8.83313 9.31018 9.20623 9.31018 9.66646C9.31018 10.1267 9.68328 10.4998 10.1435 10.4998Z" fill="white"/>
<path d="M6.81014 10.4998C7.27038 10.4998 7.64347 10.1267 7.64347 9.66646C7.64347 9.20623 7.27038 8.83313 6.81014 8.83313C6.3499 8.83313 5.97681 9.20623 5.97681 9.66646C5.97681 10.1267 6.3499 10.4998 6.81014 10.4998Z" fill="white"/>
<path d="M13.4768 10.4998C13.9371 10.4998 14.3102 10.1267 14.3102 9.66646C14.3102 9.20623 13.9371 8.83313 13.4768 8.83313C13.0166 8.83313 12.6435 9.20623 12.6435 9.66646C12.6435 10.1267 13.0166 10.4998 13.4768 10.4998Z" fill="white"/>
<path d="M2.68506 18.725C2.85948 18.797 3.04638 18.8338 3.23506 18.8333C3.42113 18.8343 3.6055 18.7979 3.77727 18.7263C3.94903 18.6547 4.1047 18.5494 4.23506 18.4167L6.31839 16.3333H14.3101C15.4151 16.3333 16.4749 15.8943 17.2563 15.1129C18.0377 14.3315 18.4767 13.2717 18.4767 12.1667V7.16667C18.4767 6.0616 18.0377 5.00179 17.2563 4.22039C16.4749 3.43899 15.4151 3 14.3101 3H5.97673C4.87166 3 3.81185 3.43899 3.03045 4.22039C2.24905 5.00179 1.81006 6.0616 1.81006 7.16667V17.4083C1.80742 17.6902 1.88939 17.9663 2.04539 18.201C2.20138 18.4358 2.42421 18.6183 2.68506 18.725V18.725ZM3.47673 7.16667C3.47673 6.50363 3.74012 5.86774 4.20896 5.3989C4.6778 4.93006 5.31368 4.66667 5.97673 4.66667H14.3101C14.9731 4.66667 15.609 4.93006 16.0778 5.3989C16.5467 5.86774 16.8101 6.50363 16.8101 7.16667V12.1667C16.8101 12.8297 16.5467 13.4656 16.0778 13.9344C15.609 14.4033 14.9731 14.6667 14.3101 14.6667H5.97673C5.86705 14.666 5.75834 14.6871 5.6568 14.7285C5.55527 14.77 5.46293 14.8311 5.38506 14.9083L3.47673 16.825V7.16667Z" fill="white"/>
</svg>
