<svg width="17" height="15" viewBox="0 0 17 15" fill="none" xmlns="http://www.w3.org/2000/svg">
<path d="M15.9768 1.66667H0.976827C0.504605 1.66667 0.143494 1.30555 0.143494 0.833333C0.143494 0.361111 0.504605 0 0.976827 0H15.9768C16.449 0 16.8102 0.361111 16.8102 0.833333C16.8102 1.30555 16.449 1.66667 15.9768 1.66667Z" fill="white"/>
<path d="M10.9768 6.11112H0.976827C0.504605 6.11112 0.143494 5.75001 0.143494 5.27779C0.143494 4.80557 0.504605 4.44446 0.976827 4.44446H10.9768C11.449 4.44446 11.8102 4.80557 11.8102 5.27779C11.8102 5.75001 11.449 6.11112 10.9768 6.11112Z" fill="white"/>
<path d="M15.9768 10.5555H0.976827C0.504605 10.5555 0.143494 10.1944 0.143494 9.72213C0.143494 9.24991 0.504605 8.88879 0.976827 8.88879H15.9768C16.449 8.88879 16.8102 9.24991 16.8102 9.72213C16.8102 10.1944 16.449 10.5555 15.9768 10.5555Z" fill="white"/>
<path d="M10.9768 14.9999H0.976827C0.504605 14.9999 0.143494 14.6388 0.143494 14.1666C0.143494 13.6944 0.504605 13.3333 0.976827 13.3333H10.9768C11.449 13.3333 11.8102 13.6944 11.8102 14.1666C11.8102 14.6388 11.449 14.9999 10.9768 14.9999Z" fill="white"/>
</svg>
