<svg width="18" height="15" viewBox="0 0 18 15" fill="none" xmlns="http://www.w3.org/2000/svg">
<path d="M16.6438 1.66667H1.64376C1.17154 1.66667 0.810425 1.30555 0.810425 0.833333C0.810425 0.361111 1.17154 0 1.64376 0H16.6438C17.116 0 17.4771 0.361111 17.4771 0.833333C17.4771 1.30555 17.116 1.66667 16.6438 1.66667Z" fill="white"/>
<path d="M11.6438 6.111H1.64376C1.17154 6.111 0.810425 5.74989 0.810425 5.27767C0.810425 4.80545 1.17154 4.44434 1.64376 4.44434H11.6438C12.116 4.44434 12.4771 4.80545 12.4771 5.27767C12.4771 5.74989 12.116 6.111 11.6438 6.111Z" fill="white"/>
<path d="M16.6438 10.5556H1.64376C1.17154 10.5556 0.810425 10.1945 0.810425 9.72225C0.810425 9.25003 1.17154 8.88892 1.64376 8.88892H16.6438C17.116 8.88892 17.4771 9.25003 17.4771 9.72225C17.4771 10.1945 17.116 10.5556 16.6438 10.5556Z" fill="white"/>
<path d="M11.6438 14.9999H1.64376C1.17154 14.9999 0.810425 14.6388 0.810425 14.1666C0.810425 13.6944 1.17154 13.3333 1.64376 13.3333H11.6438C12.116 13.3333 12.4771 13.6944 12.4771 14.1666C12.4771 14.6388 12.116 14.9999 11.6438 14.9999Z" fill="white"/>
</svg>
