<svg width="18" height="18" viewBox="0 0 18 18" fill="none" xmlns="http://www.w3.org/2000/svg">
<g clip-path="url(#clip0_47_371)">
<path d="M8.03651 5.05344C8.03651 6.04518 8.03651 7.03919 8.03651 8.03093C8.03651 8.9638 7.39555 9.60685 6.46696 9.60685C4.8793 9.60685 3.2939 9.60685 1.70624 9.60685C0.788971 9.60685 0.145752 8.96154 0.145752 8.04225C0.145752 6.05197 0.145752 4.05943 0.145752 2.06916C0.145752 1.14534 0.786706 0.502294 1.70624 0.50003C3.29843 0.50003 4.89289 0.497766 6.48508 0.50003C7.39102 0.50003 8.03424 1.14761 8.03651 2.05557C8.03877 3.05411 8.03651 4.05264 8.03651 5.05117V5.05344ZM1.35745 5.03533C1.35745 6.02254 1.35745 7.00749 1.35745 7.9947C1.35745 8.3049 1.44351 8.39321 1.747 8.39321C3.30975 8.39321 4.87024 8.39321 6.43299 8.39321C6.72969 8.39321 6.82254 8.30264 6.82254 8.01282C6.82254 6.04065 6.82254 4.06849 6.82254 2.09633C6.82254 1.8065 6.72969 1.71593 6.43299 1.71593C4.87024 1.71593 3.30975 1.71593 1.747 1.71593C1.44351 1.71593 1.35745 1.8065 1.35745 2.11444C1.35745 3.08807 1.35745 4.0617 1.35745 5.03533Z" fill="white" stroke="white" stroke-width="0.4"/>
<path d="M17.1435 12.9442C17.1435 13.936 17.1435 14.93 17.1435 15.9217C17.1435 16.8546 16.5048 17.4977 15.574 17.4977C13.9863 17.4977 12.4009 17.4977 10.8132 17.4977C9.89597 17.4977 9.25275 16.8523 9.25049 15.9331C9.25049 13.9428 9.25049 11.9502 9.25049 9.95996C9.25049 9.03841 9.89144 8.39536 10.811 8.3931C12.4032 8.3931 13.9976 8.39083 15.5898 8.3931C16.4958 8.3931 17.139 9.04067 17.1412 9.94864C17.1435 10.9472 17.1412 11.9457 17.1412 12.9442H17.1435ZM10.4645 12.9261C10.4645 13.9065 10.4645 14.887 10.4645 15.8651C10.4645 16.2002 10.546 16.2817 10.8721 16.2817C12.4213 16.2817 13.9704 16.2817 15.5196 16.2817C15.8457 16.2817 15.9273 16.198 15.9273 15.8629C15.9273 13.9156 15.9273 11.9683 15.9273 10.0211C15.9273 9.68598 15.8457 9.60447 15.5173 9.60447C13.9682 9.60447 12.419 9.60447 10.8699 9.60447C10.5437 9.60447 10.4622 9.68825 10.4622 10.0234C10.4622 10.9902 10.4622 11.957 10.4622 12.9261H10.4645Z" fill="white" stroke="white" stroke-width="0.4"/>
<path d="M13.1823 7.17965C12.3986 7.17965 11.615 7.17965 10.8313 7.17965C9.88917 7.17965 9.25275 6.53887 9.25275 5.59468C9.25275 4.42632 9.25275 3.2557 9.25275 2.08735C9.25275 1.14089 9.88917 0.504639 10.8336 0.504639C12.4145 0.504639 13.9931 0.504639 15.574 0.504639C16.5048 0.504639 17.1435 1.14542 17.1435 2.08056C17.1435 3.2557 17.1435 4.43085 17.1435 5.60826C17.1435 6.54113 16.5025 7.18192 15.5717 7.18192C14.7745 7.18192 13.9795 7.18192 13.1823 7.18192V7.17965ZM13.1868 5.96601C13.9704 5.96601 14.7541 5.96601 15.5377 5.96601C15.8344 5.96601 15.9273 5.87544 15.9273 5.58562C15.9273 4.42179 15.9273 3.26023 15.9273 2.09641C15.9273 1.81338 15.8344 1.71601 15.5558 1.71601C13.9818 1.71601 12.4077 1.71601 10.8336 1.71601C10.555 1.71601 10.4622 1.81111 10.4622 2.09641C10.4622 3.26023 10.4622 4.42179 10.4622 5.58562C10.4622 5.87544 10.555 5.96601 10.8517 5.96601C11.6286 5.96601 12.4077 5.96601 13.1845 5.96601H13.1868Z" fill="white" stroke="white" stroke-width="0.4"/>
<path d="M4.10244 10.8203C4.89288 10.8203 5.68331 10.8203 6.47375 10.8203C7.39554 10.8203 8.0365 11.4634 8.03876 12.3827C8.03876 13.5714 8.04103 14.7601 8.03876 15.9466C8.03876 16.8523 7.39101 17.4954 6.48054 17.4976C4.88835 17.4999 3.29389 17.4999 1.7017 17.4976C0.79349 17.4976 0.148006 16.85 0.145742 15.9443C0.143477 14.7488 0.143477 13.5556 0.145742 12.36C0.148006 11.4657 0.795755 10.8226 1.69264 10.8203C2.4944 10.8181 3.29842 10.8203 4.10018 10.8203H4.10244ZM4.10244 12.034C3.3256 12.034 2.54649 12.034 1.76964 12.034C1.44577 12.034 1.36197 12.1178 1.36197 12.4325C1.36197 13.5827 1.36197 14.733 1.36197 15.8832C1.36197 16.1979 1.44803 16.2817 1.76964 16.2817C3.3188 16.2817 4.86796 16.2817 6.41712 16.2817C6.73873 16.2817 6.8248 16.1979 6.8248 15.8832C6.8248 14.733 6.8248 13.5827 6.8248 12.4325C6.8248 12.1178 6.73873 12.034 6.41486 12.034C5.64254 12.034 4.87249 12.034 4.10018 12.034H4.10244Z" fill="white" stroke="white" stroke-width="0.4"/>
</g>
<defs>
<clipPath id="clip0_47_371">
<rect width="17" height="17" fill="white" transform="translate(0.143494 0.5)"/>
</clipPath>
</defs>
</svg>
