<svg width="14" height="17" viewBox="0 0 14 17" fill="none" xmlns="http://www.w3.org/2000/svg">
<path d="M7.6852 0.366748C7.53425 0.23766 7.34216 0.166733 7.14353 0.166748H1.3102C1.08919 0.166748 0.877226 0.254545 0.720946 0.410826C0.564665 0.567106 0.476868 0.779068 0.476868 1.00008V16.0001C0.476868 16.2211 0.564665 16.4331 0.720946 16.5893C0.877226 16.7456 1.08919 16.8334 1.3102 16.8334H12.9769C13.1979 16.8334 13.4098 16.7456 13.5661 16.5893C13.7224 16.4331 13.8102 16.2211 13.8102 16.0001V6.00008C13.8102 5.87971 13.7841 5.76077 13.7338 5.65144C13.6834 5.54211 13.61 5.44499 13.5185 5.36675L7.6852 0.366748ZM7.97687 2.80841L10.7269 5.16675H7.97687V2.80841ZM12.1435 15.1667H2.14353V1.83341H6.3102V6.00008C6.3102 6.2211 6.398 6.43306 6.55428 6.58934C6.71056 6.74562 6.92252 6.83342 7.14353 6.83342H12.1435V15.1667Z" fill="white"/>
</svg>
