<svg width="16" height="16" viewBox="0 0 16 16" fill="none" xmlns="http://www.w3.org/2000/svg">
<path d="M1.64347 15.8334H4.9768C5.08647 15.8341 5.19519 15.8131 5.29672 15.7716C5.39825 15.7301 5.4906 15.669 5.56847 15.5918L15.5685 5.59178C15.6466 5.51431 15.7086 5.42214 15.7509 5.32059C15.7932 5.21904 15.815 5.11012 15.815 5.00011C15.815 4.8901 15.7932 4.78118 15.7509 4.67963C15.7086 4.57808 15.6466 4.48592 15.5685 4.40845L12.2351 1.07511C12.1577 0.997005 12.0655 0.93501 11.9639 0.892703C11.8624 0.850395 11.7535 0.828613 11.6435 0.828613C11.5335 0.828613 11.4245 0.850395 11.323 0.892703C11.2214 0.93501 11.1293 0.997005 11.0518 1.07511L1.0518 11.0751C0.974566 11.153 0.913461 11.2453 0.871991 11.3469C0.83052 11.4484 0.809499 11.5571 0.810134 11.6668V15.0001C0.810134 15.2211 0.897931 15.4331 1.05421 15.5894C1.21049 15.7457 1.42245 15.8334 1.64347 15.8334V15.8334ZM2.4768 12.0084L11.6435 2.84178L13.8018 5.00011L4.63513 14.1668H2.4768V12.0084Z" fill="white"/>
</svg>
