<svg width="18" height="18" viewBox="0 0 18 18" fill="none" xmlns="http://www.w3.org/2000/svg">
<path d="M15.1351 12.4249C15.5678 11.9084 15.8066 11.2571 15.8101 10.5833C15.8101 9.80973 15.5028 9.06786 14.9558 8.52088C14.4089 7.9739 13.667 7.66661 12.8935 7.66661H12.6601C13.3474 6.84993 13.725 5.8173 13.7268 4.74994C13.7287 3.9804 13.5369 3.22275 13.1689 2.54688C12.801 1.871 12.2688 1.29865 11.6214 0.882602C10.974 0.466558 10.2323 0.220217 9.46462 0.166296C8.69696 0.112374 7.92809 0.252608 7.2289 0.574066C6.52971 0.895523 5.92272 1.38785 5.46389 2.00566C5.00507 2.62346 4.70919 3.34685 4.60354 4.10911C4.49788 4.87137 4.58586 5.64796 4.85935 6.36726C5.13285 7.08657 5.58305 7.72543 6.16845 8.22494C4.59367 8.8268 3.23847 9.89213 2.2818 11.2803C1.32513 12.6684 0.811982 14.3141 0.81012 15.9999C0.81012 16.221 0.897917 16.4329 1.0542 16.5892C1.21048 16.7455 1.42244 16.8333 1.64345 16.8333C1.86447 16.8333 2.07643 16.7455 2.23271 16.5892C2.38899 16.4329 2.47679 16.221 2.47679 15.9999C2.47679 14.2318 3.17917 12.5361 4.42941 11.2859C5.67965 10.0357 7.37534 9.33327 9.14345 9.33327H10.2685C10.0244 9.82995 9.9306 10.3871 9.99869 10.9363C10.0668 11.4855 10.2938 12.0029 10.6518 12.4249C9.94185 12.822 9.35062 13.4012 8.93902 14.1029C8.52742 14.8045 8.31033 15.6032 8.31012 16.4166C8.31012 16.6376 8.39792 16.8496 8.5542 17.0059C8.71048 17.1621 8.92244 17.2499 9.14345 17.2499C9.36447 17.2499 9.57643 17.1621 9.73271 17.0059C9.88899 16.8496 9.97679 16.6376 9.97679 16.4166C9.97679 15.6431 10.2841 14.9012 10.8311 14.3542C11.378 13.8072 12.1199 13.4999 12.8935 13.4999C13.667 13.4999 14.4089 13.8072 14.9558 14.3542C15.5028 14.9012 15.8101 15.6431 15.8101 16.4166C15.8101 16.6376 15.8979 16.8496 16.0542 17.0059C16.2105 17.1621 16.4224 17.2499 16.6435 17.2499C16.8645 17.2499 17.0764 17.1621 17.2327 17.0059C17.389 16.8496 17.4768 16.6376 17.4768 16.4166C17.4766 15.6032 17.2595 14.8045 16.8479 14.1029C16.4363 13.4012 15.8451 12.822 15.1351 12.4249V12.4249ZM9.14345 7.66661C8.56659 7.66661 8.00268 7.49555 7.52304 7.17506C7.0434 6.85457 6.66956 6.39905 6.4488 5.8661C6.22805 5.33315 6.17029 4.74671 6.28283 4.18093C6.39537 3.61515 6.67316 3.09545 7.08106 2.68755C7.48896 2.27964 8.00866 2.00186 8.57444 1.88932C9.14022 1.77678 9.72666 1.83454 10.2596 2.05529C10.7926 2.27605 11.2481 2.64989 11.5686 3.12953C11.8891 3.60917 12.0601 4.17308 12.0601 4.74994C12.0601 5.52349 11.7528 6.26536 11.2058 6.81234C10.6589 7.35932 9.917 7.66661 9.14345 7.66661V7.66661ZM12.8935 11.8333C12.5619 11.8333 12.244 11.7016 12.0096 11.4672C11.7751 11.2327 11.6435 10.9148 11.6435 10.5833C11.6456 10.2524 11.778 9.93575 12.012 9.7018C12.2459 9.46786 12.5626 9.33546 12.8935 9.33327C13.225 9.33327 13.5429 9.46497 13.7773 9.69939C14.0118 9.93381 14.1435 10.2518 14.1435 10.5833C14.1435 10.9148 14.0118 11.2327 13.7773 11.4672C13.5429 11.7016 13.225 11.8333 12.8935 11.8333Z" fill="white"/>
</svg>
